<svg width="163" height="163" viewBox="0 0 163 163" fill="none" xmlns="http://www.w3.org/2000/svg">
<rect x="54.2803" y="0.280273" width="7.71429" height="7.71429" fill="#BEFD37"/>
<rect x="61.9944" y="0.280273" width="7.71429" height="7.71429" fill="#BEFD37"/>
<rect x="69.7087" y="0.280273" width="7.71429" height="7.71429" fill="#BEFD37"/>
<rect x="77.4229" y="0.280273" width="7.71429" height="7.71429" fill="#BEFD37"/>
<rect x="85.1372" y="0.280273" width="7.71429" height="7.71429" fill="#BEFD37"/>
<rect x="92.8516" y="0.280273" width="7.71429" height="7.71429" fill="#BEFD37"/>
<rect x="100.566" y="0.280273" width="7.71429" height="7.71429" fill="#BEFD37"/>
<rect x="38.8516" y="7.99463" width="7.71429" height="7.71429" fill="#BEFD37"/>
<rect x="46.5657" y="7.99463" width="7.71429" height="7.71429" fill="#BEFD37"/>
<rect x="54.2803" y="7.99463" width="7.71429" height="7.71429" fill="#BEFD37"/>
<rect x="61.9944" y="7.99463" width="7.71429" height="7.71429" fill="#BEFD37"/>
<rect x="69.7087" y="7.99463" width="7.71429" height="7.71429" fill="#BEFD37"/>
<rect x="77.4229" y="7.99463" width="7.71429" height="7.71429" fill="#BEFD37"/>
<rect x="85.1372" y="7.99463" width="7.71429" height="7.71429" fill="#BEFD37"/>
<rect x="92.8516" y="7.99463" width="7.71429" height="7.71429" fill="#BEFD37"/>
<rect x="100.566" y="7.99463" width="7.71429" height="7.71429" fill="#BEFD37"/>
<rect x="108.28" y="7.99463" width="7.71429" height="7.71429" fill="#BEFD37"/>
<rect x="115.995" y="7.99463" width="7.71429" height="7.71429" fill="#BEFD37"/>
<rect x="31.1372" y="15.709" width="7.71429" height="7.71429" fill="#BEFD37"/>
<rect x="38.8516" y="15.709" width="7.71429" height="7.71429" fill="#BEFD37"/>
<rect x="46.5657" y="15.709" width="7.71429" height="7.71429" fill="#BEFD37"/>
<rect x="54.2803" y="15.709" width="7.71429" height="7.71429" fill="#BEFD37"/>
<rect x="61.9944" y="15.709" width="7.71429" height="7.71429" fill="#BEFD37"/>
<rect x="69.7087" y="15.709" width="7.71429" height="7.71429" fill="#BEFD37"/>
<rect x="77.4229" y="15.709" width="7.71429" height="7.71429" fill="#BEFD37"/>
<rect x="85.1372" y="15.709" width="7.71429" height="7.71429" fill="#BEFD37"/>
<rect x="92.8516" y="15.709" width="7.71429" height="7.71429" fill="#BEFD37"/>
<rect x="100.566" y="15.709" width="7.71429" height="7.71429" fill="#BEFD37"/>
<rect x="108.28" y="15.709" width="7.71429" height="7.71429" fill="#BEFD37"/>
<rect x="115.995" y="15.709" width="7.71429" height="7.71429" fill="#BEFD37"/>
<rect x="123.709" y="15.709" width="7.71429" height="7.71429" fill="#BEFD37"/>
<rect x="23.4231" y="23.4233" width="7.71429" height="7.71429" fill="#BEFD37"/>
<rect x="31.1372" y="23.4233" width="7.71429" height="7.71429" fill="#BEFD37"/>
<rect x="38.8516" y="23.4233" width="7.71429" height="7.71429" fill="#BEFD37"/>
<rect x="46.5657" y="23.4233" width="7.71429" height="7.71429" fill="#BEFD37"/>
<rect x="54.2803" y="23.4233" width="7.71429" height="7.71429" fill="#BEFD37"/>
<rect x="61.9944" y="23.4233" width="7.71429" height="7.71429" fill="#BEFD37"/>
<rect x="69.7087" y="23.4233" width="7.71429" height="7.71429" fill="#BEFD37"/>
<rect x="77.4229" y="23.4233" width="7.71429" height="7.71429" fill="#BEFD37"/>
<rect x="85.1372" y="23.4233" width="7.71429" height="7.71429" fill="#BEFD37"/>
<rect x="92.8516" y="23.4233" width="7.71429" height="7.71429" fill="#BEFD37"/>
<rect x="100.566" y="23.4233" width="7.71429" height="7.71429" fill="#BEFD37"/>
<rect x="108.28" y="23.4233" width="7.71429" height="7.71429" fill="#BEFD37"/>
<rect x="115.995" y="23.4233" width="7.71429" height="7.71429" fill="#BEFD37"/>
<rect x="123.709" y="23.4233" width="7.71429" height="7.71429" fill="#BEFD37"/>
<rect x="131.423" y="23.4233" width="7.71429" height="7.71429" fill="#BEFD37"/>
<rect x="15.7085" y="31.1372" width="7.71429" height="7.71429" fill="#BEFD37"/>
<rect x="23.4231" y="31.1372" width="7.71429" height="7.71429" fill="#BEFD37"/>
<rect x="31.1372" y="31.1372" width="7.71429" height="7.71429" fill="#BEFD37"/>
<rect x="38.8516" y="31.1372" width="7.71429" height="7.71429" fill="#BEFD37"/>
<rect x="46.5657" y="31.1372" width="7.71429" height="7.71429" fill="#BEFD37"/>
<rect x="54.2803" y="31.1372" width="7.71429" height="7.71429" fill="#BEFD37"/>
<rect x="61.9944" y="31.1372" width="7.71429" height="7.71429" fill="#BEFD37"/>
<rect x="69.7087" y="31.1372" width="7.71429" height="7.71429" fill="#BEFD37"/>
<rect x="77.4229" y="31.1372" width="7.71429" height="7.71429" fill="#BEFD37"/>
<rect x="85.1372" y="31.1372" width="7.71429" height="7.71429" fill="#BEFD37"/>
<rect x="92.8516" y="31.1372" width="7.71429" height="7.71429" fill="#BEFD37"/>
<rect x="100.566" y="31.1372" width="7.71429" height="7.71429" fill="#BEFD37"/>
<rect x="108.28" y="31.1372" width="7.71429" height="7.71429" fill="#BEFD37"/>
<rect x="115.995" y="31.1372" width="7.71429" height="7.71429" fill="#BEFD37"/>
<rect x="123.709" y="31.1372" width="7.71429" height="7.71429" fill="#BEFD37"/>
<rect x="131.423" y="31.1372" width="7.71429" height="7.71429" fill="#BEFD37"/>
<rect x="139.137" y="31.1372" width="7.71429" height="7.71429" fill="#BEFD37"/>
<rect x="7.99438" y="38.8521" width="7.71429" height="7.71429" fill="#BEFD37"/>
<rect x="15.7085" y="38.8521" width="7.71429" height="7.71429" fill="#BEFD37"/>
<rect x="23.4231" y="38.8521" width="7.71429" height="7.71429" fill="#BEFD37"/>
<rect x="31.1372" y="38.8521" width="7.71429" height="7.71429" fill="#BEFD37"/>
<rect x="38.8516" y="38.8521" width="7.71429" height="7.71429" fill="#BEFD37"/>
<rect x="46.5657" y="38.8521" width="7.71429" height="7.71429" fill="#BEFD37"/>
<rect x="54.2803" y="38.8521" width="7.71429" height="7.71429" fill="#BEFD37"/>
<rect x="61.9944" y="38.8521" width="7.71429" height="7.71429" fill="#BEFD37"/>
<rect x="69.7087" y="38.8521" width="7.71429" height="7.71429" fill="#BEFD37"/>
<rect x="77.4229" y="38.8521" width="7.71429" height="7.71429" fill="#BEFD37"/>
<rect x="85.1372" y="38.8521" width="7.71429" height="7.71429" fill="#BEFD37"/>
<rect x="92.8516" y="38.8521" width="7.71429" height="7.71429" fill="#BEFD37"/>
<rect x="100.566" y="38.8521" width="7.71429" height="7.71429" fill="#BEFD37"/>
<rect x="108.28" y="38.8521" width="7.71429" height="7.71429" fill="#BEFD37"/>
<rect x="115.995" y="38.8521" width="7.71429" height="7.71429" fill="#BEFD37"/>
<rect x="123.709" y="38.8521" width="7.71429" height="7.71429" fill="#BEFD37"/>
<rect x="131.423" y="38.8521" width="7.71429" height="7.71429" fill="#BEFD37"/>
<rect x="139.137" y="38.8521" width="7.71429" height="7.71429" fill="#BEFD37"/>
<rect x="146.852" y="38.8521" width="7.71429" height="7.71429" fill="#BEFD37"/>
<rect x="7.99438" y="46.5659" width="7.71429" height="7.71429" fill="#BEFD37"/>
<rect x="15.7085" y="46.5659" width="7.71429" height="7.71429" fill="#BEFD37"/>
<rect x="23.4231" y="46.5659" width="7.71429" height="7.71429" fill="#BEFD37"/>
<rect x="31.1372" y="46.5659" width="7.71429" height="7.71429" fill="#BEFD37"/>
<rect x="38.8516" y="46.5659" width="7.71429" height="7.71429" fill="#BEFD37"/>
<rect x="46.5657" y="46.5659" width="7.71429" height="7.71429" fill="#BEFD37"/>
<rect x="54.2803" y="46.5659" width="7.71429" height="7.71429" fill="#BEFD37"/>
<rect x="61.9944" y="46.5659" width="7.71429" height="7.71429" fill="#BEFD37"/>
<rect x="69.7087" y="46.5659" width="7.71429" height="7.71429" fill="#BEFD37"/>
<rect x="77.4229" y="46.5659" width="7.71429" height="7.71429" fill="#BEFD37"/>
<rect x="85.1372" y="46.5659" width="7.71429" height="7.71429" fill="#BEFD37"/>
<rect x="92.8516" y="46.5659" width="7.71429" height="7.71429" fill="#BEFD37"/>
<rect x="100.566" y="46.5659" width="7.71429" height="7.71429" fill="#BEFD37"/>
<rect x="108.28" y="46.5659" width="7.71429" height="7.71429" fill="#BEFD37"/>
<rect x="115.995" y="46.5659" width="7.71429" height="7.71429" fill="#BEFD37"/>
<rect x="123.709" y="46.5659" width="7.71429" height="7.71429" fill="#BEFD37"/>
<rect x="131.423" y="46.5659" width="7.71429" height="7.71429" fill="#BEFD37"/>
<rect x="139.137" y="46.5659" width="7.71429" height="7.71429" fill="#BEFD37"/>
<rect x="146.852" y="46.5659" width="7.71429" height="7.71429" fill="#BEFD37"/>
<rect x="7.99438" y="54.2803" width="7.71429" height="7.71429" fill="#BEFD37"/>
<rect x="15.7085" y="54.2803" width="7.71429" height="7.71429" fill="#BEFD37"/>
<rect x="23.4231" y="54.2803" width="7.71429" height="7.71429" fill="#BEFD37"/>
<rect x="31.1372" y="54.2803" width="7.71429" height="7.71429" fill="#BEFD37"/>
<rect x="38.8516" y="54.2803" width="7.71429" height="7.71429" fill="#BEFD37"/>
<rect x="46.5657" y="54.2803" width="7.71429" height="7.71429" fill="#BEFD37"/>
<rect x="54.2803" y="54.2803" width="7.71429" height="7.71429" fill="#BEFD37"/>
<rect x="61.9944" y="54.2803" width="7.71429" height="7.71429" fill="#BEFD37"/>
<rect x="69.7087" y="54.2803" width="7.71429" height="7.71429" fill="#BEFD37"/>
<rect x="77.4229" y="54.2803" width="7.71429" height="7.71429" fill="#BEFD37"/>
<rect x="85.1372" y="54.2803" width="7.71429" height="7.71429" fill="#BEFD37"/>
<rect x="92.8516" y="54.2803" width="7.71429" height="7.71429" fill="#BEFD37"/>
<rect x="100.566" y="54.2803" width="7.71429" height="7.71429" fill="#BEFD37"/>
<rect x="108.28" y="54.2803" width="7.71429" height="7.71429" fill="#BEFD37"/>
<rect x="115.995" y="54.2803" width="7.71429" height="7.71429" fill="#BEFD37"/>
<rect x="123.709" y="54.2803" width="7.71429" height="7.71429" fill="#BEFD37"/>
<rect x="131.423" y="54.2803" width="7.71429" height="7.71429" fill="#BEFD37"/>
<rect x="139.137" y="54.2803" width="7.71429" height="7.71429" fill="#BEFD37"/>
<rect x="146.852" y="54.2803" width="7.71429" height="7.71429" fill="#BEFD37"/>
<rect x="154.566" y="54.2803" width="7.71429" height="7.71429" fill="#BEFD37"/>
<rect x="0.280029" y="61.9946" width="7.71429" height="7.71429" fill="#BEFD37"/>
<rect x="7.99438" y="61.9946" width="7.71429" height="7.71429" fill="#BEFD37"/>
<rect x="15.7085" y="61.9946" width="7.71429" height="7.71429" fill="#BEFD37"/>
<rect x="23.4231" y="61.9946" width="7.71429" height="7.71429" fill="#BEFD37"/>
<rect x="31.1372" y="61.9946" width="7.71429" height="7.71429" fill="#BEFD37"/>
<rect x="38.8516" y="61.9946" width="7.71429" height="7.71429" fill="#BEFD37"/>
<rect x="46.5657" y="61.9946" width="7.71429" height="7.71429" fill="#BEFD37"/>
<rect x="54.2803" y="61.9946" width="7.71429" height="7.71429" fill="#BEFD37"/>
<rect x="61.9944" y="61.9946" width="7.71429" height="7.71429" fill="#BEFD37"/>
<rect x="69.7087" y="61.9946" width="7.71429" height="7.71429" fill="#BEFD37"/>
<rect x="77.4229" y="61.9946" width="7.71429" height="7.71429" fill="#BEFD37"/>
<rect x="85.1372" y="61.9946" width="7.71429" height="7.71429" fill="#BEFD37"/>
<rect x="92.8516" y="61.9946" width="7.71429" height="7.71429" fill="#BEFD37"/>
<rect x="100.566" y="61.9946" width="7.71429" height="7.71429" fill="#BEFD37"/>
<rect x="108.28" y="61.9946" width="7.71429" height="7.71429" fill="#BEFD37"/>
<rect x="115.995" y="61.9946" width="7.71429" height="7.71429" fill="#BEFD37"/>
<rect x="123.709" y="61.9946" width="7.71429" height="7.71429" fill="#BEFD37"/>
<rect x="131.423" y="61.9946" width="7.71429" height="7.71429" fill="#BEFD37"/>
<rect x="139.137" y="61.9946" width="7.71429" height="7.71429" fill="#BEFD37"/>
<rect x="146.852" y="61.9946" width="7.71429" height="7.71429" fill="#BEFD37"/>
<rect x="154.566" y="61.9946" width="7.71429" height="7.71429" fill="#BEFD37"/>
<rect x="0.280029" y="69.709" width="7.71429" height="7.71429" fill="#BEFD37"/>
<rect x="7.99438" y="69.709" width="7.71429" height="7.71429" fill="#BEFD37"/>
<rect x="15.7085" y="69.709" width="7.71429" height="7.71429" fill="#BEFD37"/>
<rect x="23.4231" y="69.709" width="7.71429" height="7.71429" fill="#BEFD37"/>
<rect x="31.1372" y="69.709" width="7.71429" height="7.71429" fill="#BEFD37"/>
<rect x="38.8516" y="69.709" width="7.71429" height="7.71429" fill="#BEFD37"/>
<rect x="46.5657" y="69.709" width="7.71429" height="7.71429" fill="#BEFD37"/>
<rect x="54.2803" y="69.709" width="7.71429" height="7.71429" fill="#BEFD37"/>
<rect x="61.9944" y="69.709" width="7.71429" height="7.71429" fill="#BEFD37"/>
<rect x="69.7087" y="69.709" width="7.71429" height="7.71429" fill="#BEFD37"/>
<rect x="77.4229" y="69.709" width="7.71429" height="7.71429" fill="#BEFD37"/>
<rect x="85.1372" y="69.709" width="7.71429" height="7.71429" fill="#BEFD37"/>
<rect x="92.8516" y="69.709" width="7.71429" height="7.71429" fill="#BEFD37"/>
<rect x="100.566" y="69.709" width="7.71429" height="7.71429" fill="#BEFD37"/>
<rect x="108.28" y="69.709" width="7.71429" height="7.71429" fill="#BEFD37"/>
<rect x="115.995" y="69.709" width="7.71429" height="7.71429" fill="#BEFD37"/>
<rect x="123.709" y="69.709" width="7.71429" height="7.71429" fill="#BEFD37"/>
<rect x="131.423" y="69.709" width="7.71429" height="7.71429" fill="#BEFD37"/>
<rect x="139.137" y="69.709" width="7.71429" height="7.71429" fill="#BEFD37"/>
<rect x="146.852" y="69.709" width="7.71429" height="7.71429" fill="#BEFD37"/>
<rect x="154.566" y="69.709" width="7.71429" height="7.71429" fill="#BEFD37"/>
<rect x="0.280029" y="77.4233" width="7.71429" height="7.71429" fill="#BEFD37"/>
<rect x="7.99438" y="77.4233" width="7.71429" height="7.71429" fill="#BEFD37"/>
<rect x="15.7085" y="77.4233" width="7.71429" height="7.71429" fill="#BEFD37"/>
<rect x="23.4231" y="77.4233" width="7.71429" height="7.71429" fill="#BEFD37"/>
<rect x="31.1372" y="77.4233" width="7.71429" height="7.71429" fill="#BEFD37"/>
<rect x="38.8516" y="77.4233" width="7.71429" height="7.71429" fill="#BEFD37"/>
<rect x="46.5657" y="77.4233" width="7.71429" height="7.71429" fill="#BEFD37"/>
<rect x="54.2803" y="77.4233" width="7.71429" height="7.71429" fill="#BEFD37"/>
<rect x="61.9944" y="77.4233" width="7.71429" height="7.71429" fill="#BEFD37"/>
<rect x="69.7087" y="77.4233" width="7.71429" height="7.71429" fill="#BEFD37"/>
<rect x="77.4229" y="77.4233" width="7.71429" height="7.71429" fill="#BEFD37"/>
<rect x="85.1372" y="77.4233" width="7.71429" height="7.71429" fill="#BEFD37"/>
<rect x="92.8516" y="77.4233" width="7.71429" height="7.71429" fill="#BEFD37"/>
<rect x="100.566" y="77.4233" width="7.71429" height="7.71429" fill="#BEFD37"/>
<rect x="108.28" y="77.4233" width="7.71429" height="7.71429" fill="#BEFD37"/>
<rect x="115.995" y="77.4233" width="7.71429" height="7.71429" fill="#BEFD37"/>
<rect x="123.709" y="77.4233" width="7.71429" height="7.71429" fill="#BEFD37"/>
<rect x="131.423" y="77.4233" width="7.71429" height="7.71429" fill="#BEFD37"/>
<rect x="139.137" y="77.4233" width="7.71429" height="7.71429" fill="#BEFD37"/>
<rect x="146.852" y="77.4233" width="7.71429" height="7.71429" fill="#BEFD37"/>
<rect x="154.566" y="77.4233" width="7.71429" height="7.71429" fill="#BEFD37"/>
<rect x="0.280029" y="85.1372" width="7.71429" height="7.71429" fill="#BEFD37"/>
<rect x="7.99438" y="85.1372" width="7.71429" height="7.71429" fill="#BEFD37"/>
<rect x="15.7085" y="85.1372" width="7.71429" height="7.71429" fill="#BEFD37"/>
<rect x="23.4231" y="85.1372" width="7.71429" height="7.71429" fill="#BEFD37"/>
<rect x="31.1372" y="85.1372" width="7.71429" height="7.71429" fill="#BEFD37"/>
<rect x="38.8516" y="85.1372" width="7.71429" height="7.71429" fill="#BEFD37"/>
<rect x="46.5657" y="85.1372" width="7.71429" height="7.71429" fill="#BEFD37"/>
<rect x="54.2803" y="85.1372" width="7.71429" height="7.71429" fill="#BEFD37"/>
<rect x="61.9944" y="85.1372" width="7.71429" height="7.71429" fill="#BEFD37"/>
<rect x="69.7087" y="85.1372" width="7.71429" height="7.71429" fill="#BEFD37"/>
<rect x="77.4229" y="85.1372" width="7.71429" height="7.71429" fill="#BEFD37"/>
<rect x="85.1372" y="85.1372" width="7.71429" height="7.71429" fill="#BEFD37"/>
<rect x="92.8516" y="85.1372" width="7.71429" height="7.71429" fill="#BEFD37"/>
<rect x="100.566" y="85.1372" width="7.71429" height="7.71429" fill="#BEFD37"/>
<rect x="108.28" y="85.1372" width="7.71429" height="7.71429" fill="#BEFD37"/>
<rect x="115.995" y="85.1372" width="7.71429" height="7.71429" fill="#BEFD37"/>
<rect x="123.709" y="85.1372" width="7.71429" height="7.71429" fill="#BEFD37"/>
<rect x="131.423" y="85.1372" width="7.71429" height="7.71429" fill="#BEFD37"/>
<rect x="139.137" y="85.1372" width="7.71429" height="7.71429" fill="#BEFD37"/>
<rect x="146.852" y="85.1372" width="7.71429" height="7.71429" fill="#BEFD37"/>
<rect x="154.566" y="85.1372" width="7.71429" height="7.71429" fill="#BEFD37"/>
<rect x="0.280029" y="92.8516" width="7.71429" height="7.71429" fill="#BEFD37"/>
<rect x="7.99438" y="92.8516" width="7.71429" height="7.71429" fill="#BEFD37"/>
<rect x="15.7085" y="92.8516" width="7.71429" height="7.71429" fill="#BEFD37"/>
<rect x="23.4231" y="92.8516" width="7.71429" height="7.71429" fill="#BEFD37"/>
<rect x="31.1372" y="92.8516" width="7.71429" height="7.71429" fill="#BEFD37"/>
<rect x="38.8516" y="92.8516" width="7.71429" height="7.71429" fill="#BEFD37"/>
<rect x="46.5657" y="92.8516" width="7.71429" height="7.71429" fill="#BEFD37"/>
<rect x="54.2803" y="92.8516" width="7.71429" height="7.71429" fill="#BEFD37"/>
<rect x="61.9944" y="92.8516" width="7.71429" height="7.71429" fill="#BEFD37"/>
<rect x="69.7087" y="92.8516" width="7.71429" height="7.71429" fill="#BEFD37"/>
<rect x="77.4229" y="92.8516" width="7.71429" height="7.71429" fill="#BEFD37"/>
<rect x="85.1372" y="92.8516" width="7.71429" height="7.71429" fill="#BEFD37"/>
<rect x="92.8516" y="92.8516" width="7.71429" height="7.71429" fill="#BEFD37"/>
<rect x="100.566" y="92.8516" width="7.71429" height="7.71429" fill="#BEFD37"/>
<rect x="108.28" y="92.8516" width="7.71429" height="7.71429" fill="#BEFD37"/>
<rect x="115.995" y="92.8516" width="7.71429" height="7.71429" fill="#BEFD37"/>
<rect x="123.709" y="92.8516" width="7.71429" height="7.71429" fill="#BEFD37"/>
<rect x="131.423" y="92.8516" width="7.71429" height="7.71429" fill="#BEFD37"/>
<rect x="139.137" y="92.8516" width="7.71429" height="7.71429" fill="#BEFD37"/>
<rect x="146.852" y="92.8516" width="7.71429" height="7.71429" fill="#BEFD37"/>
<rect x="154.566" y="92.8516" width="7.71429" height="7.71429" fill="#BEFD37"/>
<rect x="7.99438" y="100.566" width="7.71429" height="7.71429" fill="#BEFD37"/>
<rect x="15.7085" y="100.566" width="7.71429" height="7.71429" fill="#BEFD37"/>
<rect x="23.4231" y="100.566" width="7.71429" height="7.71429" fill="#BEFD37"/>
<rect x="31.1372" y="100.566" width="7.71429" height="7.71429" fill="#BEFD37"/>
<rect x="38.8516" y="100.566" width="7.71429" height="7.71429" fill="#BEFD37"/>
<rect x="46.5657" y="100.566" width="7.71429" height="7.71429" fill="#BEFD37"/>
<rect x="54.2803" y="100.566" width="7.71429" height="7.71429" fill="#BEFD37"/>
<rect x="61.9944" y="100.566" width="7.71429" height="7.71429" fill="#BEFD37"/>
<rect x="69.7087" y="100.566" width="7.71429" height="7.71429" fill="#BEFD37"/>
<rect x="77.4229" y="100.566" width="7.71429" height="7.71429" fill="#BEFD37"/>
<rect x="85.1372" y="100.566" width="7.71429" height="7.71429" fill="#BEFD37"/>
<rect x="92.8516" y="100.566" width="7.71429" height="7.71429" fill="#BEFD37"/>
<rect x="100.566" y="100.566" width="7.71429" height="7.71429" fill="#BEFD37"/>
<rect x="108.28" y="100.566" width="7.71429" height="7.71429" fill="#BEFD37"/>
<rect x="115.995" y="100.566" width="7.71429" height="7.71429" fill="#BEFD37"/>
<rect x="123.709" y="100.566" width="7.71429" height="7.71429" fill="#BEFD37"/>
<rect x="131.423" y="100.566" width="7.71429" height="7.71429" fill="#BEFD37"/>
<rect x="139.137" y="100.566" width="7.71429" height="7.71429" fill="#BEFD37"/>
<rect x="146.852" y="100.566" width="7.71429" height="7.71429" fill="#BEFD37"/>
<rect x="154.566" y="100.566" width="7.71429" height="7.71429" fill="#BEFD37"/>
<rect x="7.99438" y="108.28" width="7.71429" height="7.71429" fill="#BEFD37"/>
<rect x="15.7085" y="108.28" width="7.71429" height="7.71429" fill="#BEFD37"/>
<rect x="23.4231" y="108.28" width="7.71429" height="7.71429" fill="#BEFD37"/>
<rect x="31.1372" y="108.28" width="7.71429" height="7.71429" fill="#BEFD37"/>
<rect x="38.8516" y="108.28" width="7.71429" height="7.71429" fill="#BEFD37"/>
<rect x="46.5657" y="108.28" width="7.71429" height="7.71429" fill="#BEFD37"/>
<rect x="54.2803" y="108.28" width="7.71429" height="7.71429" fill="#BEFD37"/>
<rect x="61.9944" y="108.28" width="7.71429" height="7.71429" fill="#BEFD37"/>
<rect x="69.7087" y="108.28" width="7.71429" height="7.71429" fill="#BEFD37"/>
<rect x="77.4229" y="108.28" width="7.71429" height="7.71429" fill="#BEFD37"/>
<rect x="85.1372" y="108.28" width="7.71429" height="7.71429" fill="#BEFD37"/>
<rect x="92.8516" y="108.28" width="7.71429" height="7.71429" fill="#BEFD37"/>
<rect x="100.566" y="108.28" width="7.71429" height="7.71429" fill="#BEFD37"/>
<rect x="108.28" y="108.28" width="7.71429" height="7.71429" fill="#BEFD37"/>
<rect x="115.995" y="108.28" width="7.71429" height="7.71429" fill="#BEFD37"/>
<rect x="123.709" y="108.28" width="7.71429" height="7.71429" fill="#BEFD37"/>
<rect x="131.423" y="108.28" width="7.71429" height="7.71429" fill="#BEFD37"/>
<rect x="139.137" y="108.28" width="7.71429" height="7.71429" fill="#BEFD37"/>
<rect x="146.852" y="108.28" width="7.71429" height="7.71429" fill="#BEFD37"/>
<rect x="7.99438" y="115.995" width="7.71429" height="7.71429" fill="#BEFD37"/>
<rect x="15.7085" y="115.995" width="7.71429" height="7.71429" fill="#BEFD37"/>
<rect x="23.4231" y="115.995" width="7.71429" height="7.71429" fill="#BEFD37"/>
<rect x="31.1372" y="115.995" width="7.71429" height="7.71429" fill="#BEFD37"/>
<rect x="38.8516" y="115.995" width="7.71429" height="7.71429" fill="#BEFD37"/>
<rect x="46.5657" y="115.995" width="7.71429" height="7.71429" fill="#BEFD37"/>
<rect x="54.2803" y="115.995" width="7.71429" height="7.71429" fill="#BEFD37"/>
<rect x="61.9944" y="115.995" width="7.71429" height="7.71429" fill="#BEFD37"/>
<rect x="69.7087" y="115.995" width="7.71429" height="7.71429" fill="#BEFD37"/>
<rect x="77.4229" y="115.995" width="7.71429" height="7.71429" fill="#BEFD37"/>
<rect x="85.1372" y="115.995" width="7.71429" height="7.71429" fill="#BEFD37"/>
<rect x="92.8516" y="115.995" width="7.71429" height="7.71429" fill="#BEFD37"/>
<rect x="100.566" y="115.995" width="7.71429" height="7.71429" fill="#BEFD37"/>
<rect x="108.28" y="115.995" width="7.71429" height="7.71429" fill="#BEFD37"/>
<rect x="115.995" y="115.995" width="7.71429" height="7.71429" fill="#BEFD37"/>
<rect x="123.709" y="115.995" width="7.71429" height="7.71429" fill="#BEFD37"/>
<rect x="131.423" y="115.995" width="7.71429" height="7.71429" fill="#BEFD37"/>
<rect x="139.137" y="115.995" width="7.71429" height="7.71429" fill="#BEFD37"/>
<rect x="146.852" y="115.995" width="7.71429" height="7.71429" fill="#BEFD37"/>
<rect x="15.7085" y="123.708" width="7.71429" height="7.71429" fill="#BEFD37"/>
<rect x="23.4231" y="123.708" width="7.71429" height="7.71429" fill="#BEFD37"/>
<rect x="31.1372" y="123.708" width="7.71429" height="7.71429" fill="#BEFD37"/>
<rect x="38.8516" y="123.708" width="7.71429" height="7.71429" fill="#BEFD37"/>
<rect x="46.5657" y="123.708" width="7.71429" height="7.71429" fill="#BEFD37"/>
<rect x="54.2803" y="123.708" width="7.71429" height="7.71429" fill="#BEFD37"/>
<rect x="61.9944" y="123.708" width="7.71429" height="7.71429" fill="#BEFD37"/>
<rect x="69.7087" y="123.708" width="7.71429" height="7.71429" fill="#BEFD37"/>
<rect x="77.4229" y="123.708" width="7.71429" height="7.71429" fill="#BEFD37"/>
<rect x="85.1372" y="123.708" width="7.71429" height="7.71429" fill="#BEFD37"/>
<rect x="92.8516" y="123.708" width="7.71429" height="7.71429" fill="#BEFD37"/>
<rect x="100.566" y="123.708" width="7.71429" height="7.71429" fill="#BEFD37"/>
<rect x="108.28" y="123.708" width="7.71429" height="7.71429" fill="#BEFD37"/>
<rect x="115.995" y="123.708" width="7.71429" height="7.71429" fill="#BEFD37"/>
<rect x="123.709" y="123.708" width="7.71429" height="7.71429" fill="#BEFD37"/>
<rect x="131.423" y="123.708" width="7.71429" height="7.71429" fill="#BEFD37"/>
<rect x="139.137" y="123.708" width="7.71429" height="7.71429" fill="#BEFD37"/>
<rect x="23.4231" y="131.423" width="7.71429" height="7.71429" fill="#BEFD37"/>
<rect x="31.1372" y="131.423" width="7.71429" height="7.71429" fill="#BEFD37"/>
<rect x="38.8516" y="131.423" width="7.71429" height="7.71429" fill="#BEFD37"/>
<rect x="46.5657" y="131.423" width="7.71429" height="7.71429" fill="#BEFD37"/>
<rect x="54.2803" y="131.423" width="7.71429" height="7.71429" fill="#BEFD37"/>
<rect x="61.9944" y="131.423" width="7.71429" height="7.71429" fill="#BEFD37"/>
<rect x="69.7087" y="131.423" width="7.71429" height="7.71429" fill="#BEFD37"/>
<rect x="77.4229" y="131.423" width="7.71429" height="7.71429" fill="#BEFD37"/>
<rect x="85.1372" y="131.423" width="7.71429" height="7.71429" fill="#BEFD37"/>
<rect x="92.8516" y="131.423" width="7.71429" height="7.71429" fill="#BEFD37"/>
<rect x="100.566" y="131.423" width="7.71429" height="7.71429" fill="#BEFD37"/>
<rect x="108.28" y="131.423" width="7.71429" height="7.71429" fill="#BEFD37"/>
<rect x="115.995" y="131.423" width="7.71429" height="7.71429" fill="#BEFD37"/>
<rect x="123.709" y="131.423" width="7.71429" height="7.71429" fill="#BEFD37"/>
<rect x="131.423" y="131.423" width="7.71429" height="7.71429" fill="#BEFD37"/>
<rect x="31.1372" y="139.138" width="7.71429" height="7.71429" fill="#BEFD37"/>
<rect x="38.8516" y="139.138" width="7.71429" height="7.71429" fill="#BEFD37"/>
<rect x="46.5657" y="139.138" width="7.71429" height="7.71429" fill="#BEFD37"/>
<rect x="54.2803" y="139.138" width="7.71429" height="7.71429" fill="#BEFD37"/>
<rect x="61.9944" y="139.138" width="7.71429" height="7.71429" fill="#BEFD37"/>
<rect x="69.7087" y="139.138" width="7.71429" height="7.71429" fill="#BEFD37"/>
<rect x="77.4229" y="139.138" width="7.71429" height="7.71429" fill="#BEFD37"/>
<rect x="85.1372" y="139.138" width="7.71429" height="7.71429" fill="#BEFD37"/>
<rect x="92.8516" y="139.138" width="7.71429" height="7.71429" fill="#BEFD37"/>
<rect x="100.566" y="139.138" width="7.71429" height="7.71429" fill="#BEFD37"/>
<rect x="108.28" y="139.138" width="7.71429" height="7.71429" fill="#BEFD37"/>
<rect x="115.995" y="139.138" width="7.71429" height="7.71429" fill="#BEFD37"/>
<rect x="123.709" y="139.138" width="7.71429" height="7.71429" fill="#BEFD37"/>
<rect x="38.8516" y="146.852" width="7.71429" height="7.71429" fill="#BEFD37"/>
<rect x="46.5657" y="146.852" width="7.71429" height="7.71429" fill="#BEFD37"/>
<rect x="54.2803" y="146.852" width="7.71429" height="7.71429" fill="#BEFD37"/>
<rect x="61.9944" y="146.852" width="7.71429" height="7.71429" fill="#BEFD37"/>
<rect x="69.7087" y="146.852" width="7.71429" height="7.71429" fill="#BEFD37"/>
<rect x="77.4229" y="146.852" width="7.71429" height="7.71429" fill="#BEFD37"/>
<rect x="85.1372" y="146.852" width="7.71429" height="7.71429" fill="#BEFD37"/>
<rect x="92.8516" y="146.852" width="7.71429" height="7.71429" fill="#BEFD37"/>
<rect x="100.566" y="146.852" width="7.71429" height="7.71429" fill="#BEFD37"/>
<rect x="108.28" y="146.852" width="7.71429" height="7.71429" fill="#BEFD37"/>
<rect x="115.995" y="146.852" width="7.71429" height="7.71429" fill="#BEFD37"/>
<rect x="61.9944" y="154.566" width="7.71429" height="7.71429" fill="#BEFD37"/>
<rect x="69.7087" y="154.566" width="7.71429" height="7.71429" fill="#BEFD37"/>
<rect x="77.4229" y="154.566" width="7.71429" height="7.71429" fill="#BEFD37"/>
<rect x="85.1372" y="154.566" width="7.71429" height="7.71429" fill="#BEFD37"/>
<rect x="92.8516" y="154.566" width="7.71429" height="7.71429" fill="#BEFD37"/>
</svg>
