<svg xmlns="http://www.w3.org/2000/svg" width="163px" height="163px" viewBox="0 0 163 163">
<g>
	<polygon points="163,54.5 163,108.8 155.3,108.8 155.3,124.3 147.5,124.3 147.5,132 139.8,132 139.8,139.8 132,139.8 
		132,147.5 124.3,147.5 124.3,155.3 101,155.3 101,163 62.3,163 62.3,155.3 39,155.3 39,147.5 31.3,147.5 31.3,139.8 23.5,139.8 
		23.5,132 15.8,132 15.8,124.3 8,124.3 8,101 0.3,101 0.3,62.3 8,62.3 8,39 15.8,39 15.8,31.3 23.5,31.3 23.5,23.5 31.3,23.5 
		31.3,15.8 39,15.8 39,8 54.5,8 54.5,0.3 108.8,0.3 108.8,8 124.3,8 124.3,15.8 132,15.8 132,23.5 139.8,23.5 139.8,31.3 
		147.5,31.3 147.5,39 155.3,39 155.3,54.5 	" fill="#BEFD37"/>
</g>
</svg>
