<svg xmlns="http://www.w3.org/2000/svg" width="100%" height="100%" viewBox="0 0 40 40">
	<rect x="8.9" y="4.7" width="3" height="1.5" fill="current"/>
	<rect x="28.2" y="4.7" width="3" height="1.5" fill="current"/>
	<rect x="7.4" y="6.2" width="1.5" height="1.5" fill="current"/>
	<path d="M38.5,18.1v-4.4H37V9.2h-1.5V7.7h-1.5v1.5h-1.5V7.7h1.5V6.2h-3v1.5h-3V6.2H11.8v1.5h-3v1.5H7.4V7.7h-3v3H3v4.4
		H1.5v7.4H0v7.4h1.5v1.5H3v1.5h3v1.5h5.9v-3h-3v-1.5H7.4v-1.5h3v1.5h4.4v1.5h11.9v-1.5h4.4v-1.5h1.5v1.5h-1.5v1.5h-3v1.5h1.5v1.5h5.9
		v-1.5h3v-1.5H40V18.1H38.5z M17.8,24h-1.5v1.5h-5.9v-7.4h5.9v1.5h1.5V24z M31.1,22.5h-1.5v3h-5.9v-3h-1.5V21h1.5v-3h5.9v3h1.5V22.5z
		" fill="current"/>
</svg>
