<svg width="71" height="53" viewBox="0 0 71 53" fill="none" xmlns="http://www.w3.org/2000/svg">
<path fill-rule="evenodd" clip-rule="evenodd" d="M18.4709 0.479004H15.8511V3.09863L13.2314 3.09912V5.71875H10.6116H7.9917V8.33838V10.9585L5.37207 10.959V13.5786V16.1982V18.8179H2.7522V21.4375V24.0576V26.6777V29.2974V31.9175L0.13208 31.917V34.5366V37.1567V39.7764V42.3965V45.0166H2.75195L2.7522 47.6362H5.37207V50.2563H7.99194H10.6116V52.8755H13.2314H15.8513H18.4709H21.0908V50.2563V47.6367H18.4709L15.8513 47.6362V45.0166H13.2314V42.3965H15.8513H18.4709V45.0166H21.0908H23.7109H26.3306V47.6362H28.9504H31.5703H34.1899H36.8098H39.4299H42.0498H44.6694H47.2893V45.0166H49.9092H52.5288H55.1489V47.6362L52.5288 47.6367H49.9089V50.2563H52.5288L52.5291 52.8755H55.1489H57.7688H60.3884H63.0083V50.2563H65.6282H68.2478V47.6362H70.8677V45.0166V42.3965V39.7764V37.1567V34.5366V31.9175V29.2974V26.6777V24.0581L68.2478 24.0576V21.4375V18.8179V16.1982H65.6282V13.5786V10.9585V8.33887L63.0083 8.33838V5.71875H60.3884V3.09912H57.7688L55.1489 3.09863V0.479004H52.5288H49.9089V3.09863L47.2893 3.09912H44.6694H42.0498H39.4299H36.8098H34.1899H31.5703H28.9504H26.3306H23.7109L21.0908 3.09863V0.479004H18.4709ZM15.8513 5.71875H13.2314V8.33838H15.8511L15.8513 5.71875ZM15.8513 5.71875H18.4709H21.0911L21.0908 3.09863H18.4709H15.8511L15.8513 5.71875ZM49.9089 3.09863H52.5288H55.1489V5.71875H52.5288H49.9092L49.9089 3.09863ZM60.3884 5.71875V8.33838H57.7688V5.71875H60.3884ZM55.1489 45.0166V42.3965H57.7688L57.7686 45.0166H55.1489ZM49.9092 37.1567H52.5291V34.5366V31.917L55.1489 31.9175V29.2974H52.5291V26.6777L52.5288 24.0576H49.9092H47.2893H44.6694H42.0498V26.6777V29.2974H39.4299V31.9175L42.0498 31.917V34.5366V37.1567H44.6694H47.2893H49.9092ZM28.9504 37.1567H26.3306H23.7109H21.0908H18.4709V34.5366V31.9175V29.2974V26.6777V24.0576H21.0908H23.7109H26.3306H28.9504V26.6777H31.5703L31.5701 29.2974V31.9175V34.5366L28.9504 34.5371V37.1567Z" fill="white"/>
</svg>
