<svg width="66" height="69" viewBox="0 0 66 69" fill="none" xmlns="http://www.w3.org/2000/svg">
<path fill-rule="evenodd" clip-rule="evenodd" d="M15.719 0H18.3389H20.9587H23.5784H26.1982H28.8184H31.4382H34.0579H36.6777H39.2976H41.9172H44.5374H47.1572H49.7769V2.61963L52.3967 2.62012H55.0166V5.23975H57.6362H60.2561V7.85938L62.8762 7.85986V10.4795V13.0986L65.4958 13.0991V15.7188V18.3384V20.9585V23.5786V26.1982V28.8179V31.4375V34.0576V36.6777V39.2974V41.9175V44.5366V47.1567V49.7764V52.3965V55.0166V57.6362H62.8762V60.2563H60.2561V62.8755H57.6362V65.4956H55.0166H52.3967V68.1152H49.7769H47.1572H44.5374H41.9172H39.2976H36.6777H34.0579H31.4382H28.8184H26.1982H23.5784H20.9587H18.3389H15.719H13.0991L13.0994 65.4956H10.4792H7.85938V62.8755H5.2395L5.23975 60.2563H2.61987V57.6362H0V55.0166V52.3965V49.7764V47.1567V44.5366V41.9175V39.2974V36.6777V34.0576V31.4375V28.8179V26.1982V23.5786V20.9585V18.3384V15.7188V13.0986V10.479L2.61987 10.4795V7.85986L5.2395 7.85938V5.23975H7.85938V2.62012H10.4792H13.0994L15.719 2.61963V0ZM55.0164 62.8755V60.2559L57.6362 60.2563V57.6367L60.2563 57.6362V55.0166V52.3965V49.7764V47.1567V44.5366V41.9175V39.2974V36.6777V34.0576V31.4375V28.8179V26.1982V23.5786V20.9585V18.3384V15.7188V13.0986L60.2561 10.4795H57.6362V7.85938H55.0166H52.3967V5.23975H49.7769H47.1572H44.5374H41.9172H39.2976H36.6777H34.0579H31.4382H28.8184H26.1982H23.5784H20.9587H18.3389H15.719H13.0994V7.85938H10.4792H7.85938V10.4795H5.23975V13.0986V15.7188V18.3384V20.9585V23.5786V26.1982V28.8179V31.4375V34.0576V36.6777V39.2974V41.9175V44.5366V47.1567V49.7764V52.3965V55.0166V57.6362L7.85938 57.6367V60.2563L10.4792 60.2559V62.8755L13.0994 62.876H15.719H18.3389H20.9587H23.5784H26.1982H28.8184H31.4382H34.0579H36.6777H39.2976H41.9172H44.5374H47.1572H49.7769H52.3967L55.0164 62.8755ZM49.7769 10.479H52.3967V13.0986L55.0166 13.0991V15.7188V18.3384H52.3967H49.7769H47.157V15.7188V13.0991L49.7769 13.0986V10.479ZM23.5784 18.3389H26.1982H28.8184H31.4382H34.0579H36.6777H39.2976V20.9585L41.9172 20.959H44.5374V23.5786H47.1572V26.1982V28.8179H49.7769V31.4375V34.0576V36.6777V39.2974H47.1572V41.9175V44.5366H44.5374V47.1567H41.9172V49.7764H39.2976H36.6777H34.0579H31.4382H28.8184H26.1982H23.5784V47.1567H20.9585L20.9587 44.5366H18.3389V41.9175H15.719V39.2974V36.6777V34.0576V31.4375V28.8179H18.3389V26.1982V23.5786H20.9585V20.959L23.5784 20.9585V18.3389ZM36.6777 47.1567V44.5371H39.2976L41.9175 44.5366V41.917L44.5374 41.9175V39.2974V36.6777V34.0576V31.4375V28.8179H41.9175V26.1982L41.9172 23.5786H39.2976H36.6777V20.9585H34.0579H31.4382H28.8184V23.5786H26.1982H23.5784V26.1982H20.9587V28.8179V31.4375V34.0576V36.6777V39.2974V41.9175L23.5784 41.917V44.5366L26.1982 44.5371V47.1567H28.8184H31.4382H34.0579H36.6777Z" fill="white"/>
</svg>
