<svg xmlns="http://www.w3.org/2000/svg" width="40px" height="40px" viewBox="0 0 40 40">
	<polygon points="32.3,8.6 32.3,11.5 28,11.5 28,8.6 29.5,8.6 29.5,7.2 30.9,7.2 30.9,8.6 " fill="#ffffff"/>
	<path d="M28,17.2v-2.8h-1.4v-1.4h-2.8v-1.4h-8.5v1.4h-1.4v1.4h-1.4v2.8H11v7.1h1.4v1.4h1.4v1.4h1.4v1.4h10v-1.4h1.4
		v-1.4H28v-2.8h1.4v-5.7H28z M26.6,24.3h-1.4v1.4h-2.9v1.4h-5.7v-1.4h-1.4v-1.4h-1.4v-8.5h1.4v-1.4h2.8v-1.4h4.3v1.4h2.9v2.8h1.4
		V24.3z" fill="#ffffff"/>
	<path d="M36.6,8.6V5.8h-1.4V4.4h-2.8V3h-2.8V1.5H11V3H6.7v1.4H5.3v1.4H3.9v1.4H2.5v25.6h1.4v1.4h1.4v1.4h1.4v1.4h2.8
		v1.4h21.3v-1.4h2.8v-1.4h1.4v-1.4h1.4v-1.4H38V8.6H36.6z M35.2,32.8h-1.4v1.4h-1.4v1.4H8.2v-1.4H6.7v-1.4H5.3V7.2h1.4V5.8h2.9V4.4
		h21.3v1.4h2.8v1.4h1.4V32.8z" fill="#ffffff"/>
</svg>
