<svg xmlns="http://www.w3.org/2000/svg" width="40px" height="40px" viewBox="0 0 40 40">
	<polygon points="34.6,7.2 37.8,7.2 37.8,5.6 31.4,5.6 31.4,4 23.4,4 23.4,5.6 21.8,5.6 21.8,7.2 20.2,7.2 20.2,13.6 
		13.8,13.6 13.8,12 9,12 9,10.4 7.4,10.4 7.4,8.8 4.2,8.8 4.2,7.2 1,7.2 1,10.4 2.6,10.4 2.6,13.6 4.2,13.6 4.2,15.2 5.8,15.2 
		5.8,16.8 2.6,16.8 2.6,20 4.2,20 4.2,21.6 5.8,21.6 5.8,23.2 4.2,23.2 4.2,24.8 5.8,24.8 5.8,26.4 7.4,26.4 7.4,28 13.8,28 
		13.8,29.6 10.6,29.6 10.6,31.2 7.4,31.2 7.4,32.8 1,32.8 1,34.4 5.8,34.4 5.8,36 20.2,36 20.2,34.4 23.4,34.4 23.4,32.8 26.6,32.8 
		26.6,31.2 28.2,31.2 28.2,29.6 29.8,29.6 29.8,28 31.4,28 31.4,24.8 33,24.8 33,21.6 34.6,21.6 34.6,15.2 36.2,15.2 36.2,10.4 
		37.8,10.4 37.8,8.8 34.6,8.8 " fill="#ffffff"/>
	<rect x="37.8" y="7.2" width="1.6" height="1.6" fill="#ffffff"/>
	<rect x="1" y="15.2" width="1.6" height="1.6" fill="#ffffff"/>
</svg>
