<svg width="63" height="53" viewBox="0 0 63 53" fill="none" xmlns="http://www.w3.org/2000/svg">
<path fill-rule="evenodd" clip-rule="evenodd" d="M36.8015 0.0991211H39.4214H42.0415H44.6614H47.281H49.9009V2.71875H52.5208H55.1404H57.7603H60.3804V5.33838H57.7603H55.1404V7.9585L57.7603 7.95898L60.3801 7.9585L60.3804 10.5786H57.7603V13.1982V15.8179V18.4375H55.1404V21.0576V23.6777V26.2974V28.9175H52.5208V31.5366V34.1567H49.9009V36.7764V39.3965H47.281V42.0166H44.6614V44.6362H42.0415V47.2563H39.4214H36.8015V49.8755H34.1819H31.562V52.4956H28.9421H26.3225H23.7026H21.0825H18.4629H15.843H13.2231H10.6035H7.98364V49.8755H5.36353H2.7439H0.124023V47.2559H2.7439H5.36353H7.98364L10.6033 47.2563V44.6367H13.2231L15.843 44.6362V42.0166H18.4629H21.0828L21.0825 39.3965H18.4629H15.843H13.2231H10.6033L10.6035 36.7764H7.98364V34.1567H5.36377V31.5371L7.98364 31.5366V28.9175H5.36377L5.36353 26.2974H2.74365V23.6777L2.7439 21.0576L5.36353 21.0581L7.98364 21.0576V18.4375H5.36377L5.36353 15.8179H2.74365V13.1982L2.7439 10.5786H0.124023V7.9585V5.33887H2.7439H5.36353V7.9585L7.98364 7.95898H10.6035V10.5786H13.2231V13.1982H15.843H18.4629H21.0825V15.8179H23.7026H26.3225H28.9421H31.562V13.1982V10.5786V7.9585V5.33887L34.1816 5.33838V2.71875H36.8015V0.0991211ZM2.7439 21.0576H0.124023V18.438H2.7439V21.0576ZM60.3801 7.9585L60.3804 5.33838L63 5.33887V7.9585H60.3801Z" fill="white"/>
</svg>
